<mxfile host="app.diagrams.net" agent="Mozilla/5.0 (X11; Linux x86_64; rv:131.0) Gecko/20100101 Firefox/131.0" version="24.8.3">
  <diagram name="Page-1" id="g776WxNXkwZvrUoFtW0X">
    <mxGraphModel dx="632" dy="1028" grid="1" gridSize="10" guides="1" tooltips="1" connect="1" arrows="1" fold="1" page="1" pageScale="1" pageWidth="850" pageHeight="1100" math="0" shadow="0">
      <root>
        <mxCell id="0" />
        <mxCell id="1" parent="0" />
        <mxCell id="qAuEtzrTt-vaESTIZjYk-1" value="Coutract" style="swimlane;childLayout=stackLayout;horizontal=1;startSize=50;horizontalStack=0;rounded=1;fontSize=14;fontStyle=0;strokeWidth=2;resizeParent=0;resizeLast=1;shadow=0;dashed=0;align=center;arcSize=4;whiteSpace=wrap;html=1;" vertex="1" parent="1">
          <mxGeometry x="710" y="280" width="160" height="180" as="geometry" />
        </mxCell>
        <mxCell id="qAuEtzrTt-vaESTIZjYk-2" value="+pledge&lt;br&gt;+reward&lt;br&gt;&lt;div&gt;+start point&lt;/div&gt;&lt;div&gt;+stop point&lt;/div&gt;&lt;div&gt;+message&lt;/div&gt;&lt;div&gt;+lifetime&lt;/div&gt;&lt;div&gt;+complite_time&lt;/div&gt;" style="align=left;strokeColor=none;fillColor=none;spacingLeft=4;fontSize=12;verticalAlign=top;resizable=0;rotatable=0;part=1;html=1;" vertex="1" parent="qAuEtzrTt-vaESTIZjYk-1">
          <mxGeometry y="50" width="160" height="130" as="geometry" />
        </mxCell>
        <mxCell id="qAuEtzrTt-vaESTIZjYk-4" value="User" style="swimlane;childLayout=stackLayout;horizontal=1;startSize=50;horizontalStack=0;rounded=1;fontSize=14;fontStyle=0;strokeWidth=2;resizeParent=0;resizeLast=1;shadow=0;dashed=0;align=center;arcSize=4;whiteSpace=wrap;html=1;" vertex="1" parent="1">
          <mxGeometry x="250" y="440" width="160" height="100" as="geometry" />
        </mxCell>
        <mxCell id="qAuEtzrTt-vaESTIZjYk-5" value="+characters&lt;br&gt;&lt;div&gt;+secrets&lt;br&gt;&lt;/div&gt;" style="align=left;strokeColor=none;fillColor=none;spacingLeft=4;fontSize=12;verticalAlign=top;resizable=0;rotatable=0;part=1;html=1;" vertex="1" parent="qAuEtzrTt-vaESTIZjYk-4">
          <mxGeometry y="50" width="160" height="50" as="geometry" />
        </mxCell>
        <mxCell id="qAuEtzrTt-vaESTIZjYk-6" value="Character" style="swimlane;childLayout=stackLayout;horizontal=1;startSize=50;horizontalStack=0;rounded=1;fontSize=14;fontStyle=0;strokeWidth=2;resizeParent=0;resizeLast=1;shadow=0;dashed=0;align=center;arcSize=4;whiteSpace=wrap;html=1;" vertex="1" parent="1">
          <mxGeometry x="250" y="250" width="160" height="110" as="geometry" />
        </mxCell>
        <mxCell id="qAuEtzrTt-vaESTIZjYk-7" value="+position&lt;br&gt;&lt;div&gt;+alliance&lt;br&gt;&lt;/div&gt;+corporation" style="align=left;strokeColor=none;fillColor=none;spacingLeft=4;fontSize=12;verticalAlign=top;resizable=0;rotatable=0;part=1;html=1;" vertex="1" parent="qAuEtzrTt-vaESTIZjYk-6">
          <mxGeometry y="50" width="160" height="60" as="geometry" />
        </mxCell>
        <mxCell id="qAuEtzrTt-vaESTIZjYk-8" value="System" style="swimlane;childLayout=stackLayout;horizontal=1;startSize=50;horizontalStack=0;rounded=1;fontSize=14;fontStyle=0;strokeWidth=2;resizeParent=0;resizeLast=1;shadow=0;dashed=0;align=center;arcSize=4;whiteSpace=wrap;html=1;" vertex="1" parent="1">
          <mxGeometry x="470" y="170" width="160" height="150" as="geometry" />
        </mxCell>
        <mxCell id="qAuEtzrTt-vaESTIZjYk-9" value="+name&lt;br&gt;&lt;div&gt;+neighbours&lt;/div&gt;&lt;div&gt;+station&lt;/div&gt;&lt;div&gt;+alliance&lt;br&gt;&lt;/div&gt;&lt;div&gt;+corporation&lt;/div&gt;&lt;div&gt;+security_level&lt;br&gt;&lt;/div&gt;" style="align=left;strokeColor=none;fillColor=none;spacingLeft=4;fontSize=12;verticalAlign=top;resizable=0;rotatable=0;part=1;html=1;" vertex="1" parent="qAuEtzrTt-vaESTIZjYk-8">
          <mxGeometry y="50" width="160" height="100" as="geometry" />
        </mxCell>
        <mxCell id="qAuEtzrTt-vaESTIZjYk-10" value="Station" style="swimlane;childLayout=stackLayout;horizontal=1;startSize=50;horizontalStack=0;rounded=1;fontSize=14;fontStyle=0;strokeWidth=2;resizeParent=0;resizeLast=1;shadow=0;dashed=0;align=center;arcSize=4;whiteSpace=wrap;html=1;" vertex="1" parent="1">
          <mxGeometry x="470" y="340" width="160" height="120" as="geometry" />
        </mxCell>
        <mxCell id="qAuEtzrTt-vaESTIZjYk-11" value="+name&lt;div&gt;+alliance&lt;br&gt;&lt;/div&gt;&lt;div&gt;+corporation&lt;br&gt;+class&lt;br&gt;&lt;/div&gt;" style="align=left;strokeColor=none;fillColor=none;spacingLeft=4;fontSize=12;verticalAlign=top;resizable=0;rotatable=0;part=1;html=1;" vertex="1" parent="qAuEtzrTt-vaESTIZjYk-10">
          <mxGeometry y="50" width="160" height="70" as="geometry" />
        </mxCell>
        <mxCell id="qAuEtzrTt-vaESTIZjYk-13" value="" style="endArrow=classic;startArrow=none;html=1;rounded=0;entryX=0;entryY=0.25;entryDx=0;entryDy=0;exitX=0;exitY=0.75;exitDx=0;exitDy=0;startFill=0;" edge="1" parent="1" source="qAuEtzrTt-vaESTIZjYk-9" target="qAuEtzrTt-vaESTIZjYk-11">
          <mxGeometry width="50" height="50" relative="1" as="geometry">
            <mxPoint x="310" y="300" as="sourcePoint" />
            <mxPoint x="360" y="250" as="targetPoint" />
            <Array as="points">
              <mxPoint x="440" y="295" />
              <mxPoint x="440" y="408" />
            </Array>
          </mxGeometry>
        </mxCell>
        <mxCell id="qAuEtzrTt-vaESTIZjYk-14" value="0..." style="edgeLabel;html=1;align=center;verticalAlign=middle;resizable=0;points=[];" vertex="1" connectable="0" parent="qAuEtzrTt-vaESTIZjYk-13">
          <mxGeometry x="0.6906" y="1" relative="1" as="geometry">
            <mxPoint x="7" y="-7" as="offset" />
          </mxGeometry>
        </mxCell>
        <mxCell id="qAuEtzrTt-vaESTIZjYk-15" value="" style="endArrow=classic;startArrow=none;html=1;rounded=0;entryX=0;entryY=0.25;entryDx=0;entryDy=0;exitX=1;exitY=0;exitDx=0;exitDy=0;startFill=0;" edge="1" parent="1" source="qAuEtzrTt-vaESTIZjYk-7" target="qAuEtzrTt-vaESTIZjYk-8">
          <mxGeometry width="50" height="50" relative="1" as="geometry">
            <mxPoint x="420" y="310" as="sourcePoint" />
            <mxPoint x="480" y="418" as="targetPoint" />
            <Array as="points">
              <mxPoint x="430" y="300" />
              <mxPoint x="430" y="208" />
            </Array>
          </mxGeometry>
        </mxCell>
        <mxCell id="qAuEtzrTt-vaESTIZjYk-16" value="0..." style="edgeLabel;html=1;align=center;verticalAlign=middle;resizable=0;points=[];" vertex="1" connectable="0" parent="qAuEtzrTt-vaESTIZjYk-15">
          <mxGeometry x="0.6906" y="1" relative="1" as="geometry">
            <mxPoint as="offset" />
          </mxGeometry>
        </mxCell>
        <mxCell id="qAuEtzrTt-vaESTIZjYk-17" value="0..1" style="edgeLabel;html=1;align=center;verticalAlign=middle;resizable=0;points=[];" vertex="1" connectable="0" parent="qAuEtzrTt-vaESTIZjYk-15">
          <mxGeometry x="0.6802" y="2" relative="1" as="geometry">
            <mxPoint as="offset" />
          </mxGeometry>
        </mxCell>
        <mxCell id="qAuEtzrTt-vaESTIZjYk-18" value="" style="endArrow=classic;startArrow=none;html=1;rounded=0;exitX=0.5;exitY=1;exitDx=0;exitDy=0;startFill=0;" edge="1" parent="1" source="qAuEtzrTt-vaESTIZjYk-7">
          <mxGeometry width="50" height="50" relative="1" as="geometry">
            <mxPoint x="370" y="500" as="sourcePoint" />
            <mxPoint x="330" y="440" as="targetPoint" />
            <Array as="points" />
          </mxGeometry>
        </mxCell>
        <mxCell id="qAuEtzrTt-vaESTIZjYk-19" value="0..." style="edgeLabel;html=1;align=center;verticalAlign=middle;resizable=0;points=[];" vertex="1" connectable="0" parent="qAuEtzrTt-vaESTIZjYk-18">
          <mxGeometry x="0.6906" y="1" relative="1" as="geometry">
            <mxPoint as="offset" />
          </mxGeometry>
        </mxCell>
        <mxCell id="qAuEtzrTt-vaESTIZjYk-20" value="1...3" style="edgeLabel;html=1;align=center;verticalAlign=middle;resizable=0;points=[];" vertex="1" connectable="0" parent="qAuEtzrTt-vaESTIZjYk-18">
          <mxGeometry x="0.6802" y="2" relative="1" as="geometry">
            <mxPoint as="offset" />
          </mxGeometry>
        </mxCell>
        <mxCell id="qAuEtzrTt-vaESTIZjYk-21" value="" style="endArrow=classic;startArrow=none;html=1;rounded=0;entryX=1;entryY=0;entryDx=0;entryDy=0;exitX=0;exitY=0.75;exitDx=0;exitDy=0;startFill=0;" edge="1" parent="1" target="qAuEtzrTt-vaESTIZjYk-11">
          <mxGeometry width="50" height="50" relative="1" as="geometry">
            <mxPoint x="710" y="390" as="sourcePoint" />
            <mxPoint x="710" y="503" as="targetPoint" />
            <Array as="points">
              <mxPoint x="680" y="390" />
              <mxPoint x="630" y="390" />
            </Array>
          </mxGeometry>
        </mxCell>
      </root>
    </mxGraphModel>
  </diagram>
</mxfile>
